<?xml version="1.0" standalone="no"?>
<!DOCTYPE svg PUBLIC "-//W3C//DTD SVG 20010904//EN"
 "http://www.w3.org/TR/2001/REC-SVG-20010904/DTD/svg10.dtd">
<svg version="1.0" xmlns="http://www.w3.org/2000/svg"
 width="986.000000pt" height="986.000000pt" viewBox="0 0 986.000000 986.000000"
 preserveAspectRatio="xMidYMid meet">
<metadata>
Created by potrace 1.11, written by Peter Selinger 2001-2013
</metadata>
<g transform="translate(0.000000,986.000000) scale(0.100000,-0.100000)"
fill="#000000" stroke="none">
<path d="M2207 9779 c-334 -35 -644 -244 -813 -545 -39 -71 -87 -196 -112
-293 -15 -61 -16 -371 -20 -3941 -2 -2764 0 -3903 8 -3972 15 -130 42 -223 99
-343 135 -283 382 -486 698 -573 l98 -27 2945 0 2945 0 97 27 c260 72 481 228
623 442 103 155 156 310 175 505 6 69 10 1289 10 3474 l0 3367 -3285 0 c-3636
0 -3364 -5 -3510 64 -187 88 -319 248 -370 445 -21 83 -21 246 0 326 59 222
222 397 445 477 l65 23 3258 5 3257 5 -47 70 c-57 86 -197 227 -280 283 -120
81 -248 136 -398 170 -63 14 -345 16 -2940 18 -1578 1 -2905 -2 -2948 -7z
m2993 -3760 c47 -5 109 -17 139 -26 265 -76 474 -284 561 -558 34 -106 39
-301 11 -417 -39 -165 -109 -287 -233 -409 l-77 -76 338 -1044 339 -1044
-1166 -3 c-641 -1 -1167 -1 -1168 1 -2 2 149 473 336 1048 l339 1044 -59 53
c-299 268 -360 721 -143 1060 126 197 353 341 587 372 89 11 103 11 196 -1z"/>
</g>
</svg>
